<svg xmlns="http://www.w3.org/2000/svg" xmlns:xlink="http://www.w3.org/1999/xlink" width="2000" zoomAndPan="magnify" viewBox="0 0 1500 1499.999933" height="2000" preserveAspectRatio="xMidYMid meet" version="1.0"><defs><g/></defs><g fill="#ffffff" fill-opacity="1"><g transform="translate(78.667175, 806.328007)"><g><path d="M 187.199219 -14.828125 L 118.003906 -83.40625 L 102.558594 -67.960938 L 171.753906 0.925781 Z M 122.636719 -20.078125 L 122.636719 -40.3125 L 66.878906 -40.3125 L 66.878906 -20.078125 Z M 110.746094 -90.972656 L 94.988281 -106.882812 L 3.089844 -14.980469 L 18.84375 0.925781 Z M 110.746094 -90.972656 "/></g></g></g><g fill="#ffffff" fill-opacity="1"><g transform="translate(265.864076, 806.328007)"><g><path d="M 123.253906 -85.566406 L 123.253906 -105.648438 L 46.644531 -105.648438 L 46.644531 -85.566406 Z M 123.253906 0 L 123.253906 -20.078125 L 46.644531 -20.078125 L 46.644531 0 Z M 36.140625 0 L 36.140625 -105.648438 L 13.902344 -105.648438 L 13.902344 0 Z M 36.140625 0 "/></g></g></g><g fill="#ffffff" fill-opacity="1"><g transform="translate(399.92913, 806.328007)"><g><path d="M 187.199219 -14.828125 L 118.003906 -83.40625 L 102.558594 -67.960938 L 171.753906 0.925781 Z M 122.636719 -20.078125 L 122.636719 -40.3125 L 66.878906 -40.3125 L 66.878906 -20.078125 Z M 110.746094 -90.972656 L 94.988281 -106.882812 L 3.089844 -14.980469 L 18.84375 0.925781 Z M 110.746094 -90.972656 "/></g></g></g><g fill="#ffffff" fill-opacity="1"><g transform="translate(587.126031, 806.328007)"><g><path d="M 145.496094 -20.078125 L 145.496094 -85.566406 L 123.253906 -85.566406 L 123.253906 -20.078125 Z M 116.304688 -85.566406 L 116.304688 -105.648438 L 46.644531 -105.648438 L 46.644531 -85.566406 Z M 116.304688 0 L 116.304688 -20.078125 L 46.644531 -20.078125 L 46.644531 0 Z M 36.140625 0 L 36.140625 -105.648438 L 13.902344 -105.648438 L 13.902344 0 Z M 36.140625 0 "/></g></g></g><g fill="#ffffff" fill-opacity="1"><g transform="translate(743.432355, 806.328007)"><g><path d="M 123.253906 -85.566406 L 123.253906 -105.648438 L 46.644531 -105.648438 L 46.644531 -85.566406 Z M 85.414062 -43.402344 L 85.414062 -63.328125 L 46.644531 -63.328125 L 46.644531 -43.402344 Z M 123.253906 0 L 123.253906 -20.078125 L 46.644531 -20.078125 L 46.644531 0 Z M 36.140625 0 L 36.140625 -105.648438 L 13.902344 -105.648438 L 13.902344 0 Z M 36.140625 0 "/></g></g></g><g fill="#ffffff" fill-opacity="1"><g transform="translate(877.497409, 806.328007)"><g><path d="M 170.363281 0 L 170.363281 -105.648438 L 148.121094 -105.648438 L 148.121094 0 Z M 139.78125 -90.972656 L 124.183594 -106.574219 L 99.160156 -81.550781 L 114.605469 -65.953125 Z M 107.347656 -58.382812 L 58.691406 -106.882812 L 43.246094 -91.128906 L 91.59375 -42.785156 Z M 36.140625 0 L 36.140625 -105.648438 L 13.902344 -105.648438 L 13.902344 0 Z M 36.140625 0 "/></g></g></g><g fill="#ffffff" fill-opacity="1"><g transform="translate(1058.670641, 806.328007)"><g><path d="M 36.140625 0 L 36.140625 -105.648438 L 13.902344 -105.648438 L 13.902344 0 Z M 36.140625 0 "/></g></g></g><g fill="#ffffff" fill-opacity="1"><g transform="translate(1105.624189, 806.328007)"><g><path d="M 145.496094 -20.078125 L 145.496094 -85.566406 L 123.253906 -85.566406 L 123.253906 -20.078125 Z M 112.753906 -85.566406 L 112.753906 -105.648438 L 46.644531 -105.648438 L 46.644531 -85.566406 Z M 112.753906 0 L 112.753906 -20.078125 L 46.644531 -20.078125 L 46.644531 0 Z M 36.140625 -20.078125 L 36.140625 -85.566406 L 13.902344 -85.566406 L 13.902344 -20.078125 Z M 36.140625 -20.078125 "/></g></g></g><g fill="#ffffff" fill-opacity="1"><g transform="translate(1261.930513, 806.328007)"><g><path d="M 145.496094 0 L 145.496094 -105.648438 L 123.253906 -105.648438 L 123.253906 0 Z M 115.996094 -32.125 L 59 -89.121094 L 43.246094 -73.519531 L 100.394531 -16.371094 Z M 36.140625 0 L 36.140625 -105.648438 L 13.902344 -105.648438 L 13.902344 0 Z M 36.140625 0 "/></g></g></g></svg>